# xmcd
#
# Track frame offsets:
#  150
#  17775
#  40802
#  58522
#  74499
#  92803
#  113218
#  133463
#  150715
#  168935
#  189254
#
# Disc length: 2750 seconds
#
# Revision: 0
# Processed by: cddbd v1.4PL0 Copyright (c) Steve Scherf et al.
# Submitted via: AltoMP3_Maker 3.0
#
DISCID=950abc0b
DTITLE=绿色情浓（音乐） - 绿色情浓
DYEAR=1900
DGENRE=
TTITLE0=Any man mine我的所有男人（吉它）
TTITLE1=Viva forever电台万岁（钢琴）
TTITLE2=Sitting down here坐在这里（长笛）
TTITLE3=Crush心碎（吉它）
TTITLE4=Only love只有爱（萨克斯）
TTITLE5=Un-break My heart不要伤我的心（吉它）
TTITLE6=How can I...not love you我怎么能不爱你（排萧）
TTITLE7=Material材料（萨克斯）
TTITLE8=If that is what it take如果那是他拿的（钢琴）
TTITLE9=You took my heart away你带走我的心（长笛）
TTITLE10=The color of the night 夜色（萨克斯）
EXTD=
EXTT0=
EXTT1=
EXTT2=
EXTT3=
EXTT4=
EXTT5=
EXTT6=
EXTT7=
EXTT8=
EXTT9=
EXTT10=
PLAYORDER=
